<?xml version="1.0" encoding="UTF-8"?>
<!DOCTYPE svg PUBLIC "-//W3C//DTD SVG 1.1//EN" "http://www.w3.org/Graphics/SVG/1.1/DTD/svg11.dtd">
<!-- Creator: CorelDRAW -->
<svg xmlns="http://www.w3.org/2000/svg" xml:space="preserve" width="400px" height="400px" version="1.1" style="shape-rendering:geometricPrecision; text-rendering:geometricPrecision; image-rendering:optimizeQuality; fill-rule:evenodd; clip-rule:evenodd"
viewBox="0 0 317.78 317.78"
 xmlns:xlink="http://www.w3.org/1999/xlink"
 xmlns:xodm="http://www.corel.com/coreldraw/odm/2003">
 <defs>
  <style type="text/css">
   <![CDATA[
    .fil0 {fill:black}
   ]]>
  </style>
 </defs>
 <g id="Layer_x0020_1">
  <metadata id="CorelCorpID_0Corel-Layer"/>
  <path class="fil0" d="M0 0l317.78 0 0 317.78 -317.78 0 0 -317.78zm158.89 5.896c84.652,0 152.995,68.343 152.995,152.994 0,84.652 -68.343,152.995 -152.995,152.995 -84.651,0 -152.994,-68.343 -152.994,-152.995 0,-84.651 68.343,-152.994 152.994,-152.994zm0 33.331c65.775,0 119.663,53.096 119.663,119.663 0,65.775 -53.095,119.663 -119.663,119.663 -65.775,0 -119.663,-53.095 -119.663,-119.663 0,-65.775 53.096,-119.663 119.663,-119.663z"/>
 </g>
</svg>
