<?xml version="1.0" encoding="UTF-8"?>
<!DOCTYPE svg PUBLIC "-//W3C//DTD SVG 1.1//EN" "http://www.w3.org/Graphics/SVG/1.1/DTD/svg11.dtd">
<!-- Creator: CorelDRAW -->
<svg xmlns="http://www.w3.org/2000/svg" xml:space="preserve" width="102px" height="102px" version="1.1" style="shape-rendering:geometricPrecision; text-rendering:geometricPrecision; image-rendering:optimizeQuality; fill-rule:evenodd; clip-rule:evenodd"
viewBox="0 0 686.495 686.495"
 xmlns:xlink="http://www.w3.org/1999/xlink"
 xmlns:xodm="http://www.corel.com/coreldraw/odm/2003">
 <defs>
  <style type="text/css">
   <![CDATA[
    .fil0 {fill:#A7C4D2}
    .fil1 {fill:#3E4095;fill-rule:nonzero}
   ]]>
  </style>
 </defs>
 <g id="Layer_x0020_1">
  <metadata id="CorelCorpID_0Corel-Layer"/>
  <circle class="fil0" cx="343.247" cy="343.247" r="343.247"/>
  <path class="fil1" d="M293.907 275.781l-116.207 -12.984c17.746,-98.679 75.307,-148.02 172.689,-148.02 49.015,0 87.642,12.985 115.988,38.846 28.242,25.966 42.418,57.996 42.418,96.297 0,16.987 -2.813,32.353 -8.439,46.311 -5.519,13.958 -12.77,25.534 -21.535,34.515 -8.763,8.981 -22.939,20.668 -42.63,35.057 -15.04,10.93 -24.562,18.936 -28.674,23.912 -4.11,4.979 -6.923,12.23 -8.437,21.75l-105.173 0c0,-25.643 2.272,-44.146 6.818,-55.398 4.543,-11.363 13.848,-23.372 27.915,-36.14 21.314,-19.262 34.517,-33.541 39.817,-42.956 5.302,-9.414 7.899,-20.45 7.899,-32.893 0,-13.199 -3.463,-23.263 -10.386,-30.405 -7.035,-7.032 -15.581,-10.604 -25.971,-10.604 -30.51,0 -45.876,24.238 -46.092,72.712zm56.806 161.211c37.203,0 67.364,30.16 67.364,67.363 0,37.205 -30.161,67.364 -67.364,67.364 -37.203,0 -67.363,-30.159 -67.363,-67.364 0,-37.203 30.16,-67.363 67.363,-67.363z"/>
 </g>
</svg>
