<?xml version="1.0" encoding="UTF-8"?>
<!DOCTYPE svg PUBLIC "-//W3C//DTD SVG 1.1//EN" "http://www.w3.org/Graphics/SVG/1.1/DTD/svg11.dtd">
<!-- Creator: CorelDRAW -->
<svg xmlns="http://www.w3.org/2000/svg" xml:space="preserve" width="401px" height="401px" version="1.1" style="shape-rendering:geometricPrecision; text-rendering:geometricPrecision; image-rendering:optimizeQuality; fill-rule:evenodd; clip-rule:evenodd"
viewBox="0 0 284.955 284.955"
 xmlns:xlink="http://www.w3.org/1999/xlink"
 xmlns:xodm="http://www.corel.com/coreldraw/odm/2003">
 <defs>
  <style type="text/css">
   <![CDATA[
    .str1 {stroke:#848688;stroke-width:2.846;stroke-miterlimit:2.61313}
    .str0 {stroke:#373435;stroke-width:0.356;stroke-miterlimit:2.61313}
    .str2 {stroke:#E6E7E8;stroke-width:2.846;stroke-linecap:square;stroke-miterlimit:2.61313}
    .fil0 {fill:none}
    .fil4 {fill:#E6E7E8}
    .fil2 {fill:#E6E7E8}
    .fil3 {fill:#848688}
    .fil1 {fill:#848688}
    .fil5 {fill:#51A8B1}
   ]]>
  </style>
 </defs>
 <g id="Layer_x0020_1">
  <metadata id="CorelCorpID_0Corel-Layer"/>
  <polygon class="fil0 str0" points="76.656,9.275 144.037,9.275 127.192,65.426 86.638,65.426 "/>
  <line class="fil0 str1" x1="224.169" y1="50.438" x2="142.477" y2= "142.477" />
  <line class="fil0 str1" x1="142.477" y1="142.477" x2="62.023" y2= "229.789" />
  <circle class="fil1" cx="142.477" cy="142.477" r="4.862"/>
  <circle class="fil2" cx="142.477" cy="142.477" r="2.829"/>
  <line class="fil0 str2" x1="142.477" y1="142.477" x2="127.46" y2= "262.164" />
  <line class="fil0 str2" x1="142.477" y1="142.477" x2="28.671" y2= "184.215" />
  <circle class="fil3" cx="59.88" cy="232.95" r="14.838"/>
  <circle class="fil4" cx="59.88" cy="232.95" r="13.54"/>
  <g id="_2326115208128">
   <circle class="fil3" cx="28.671" cy="184.215" r="11.101"/>
   <circle class="fil4" cx="28.671" cy="184.215" r="10.13"/>
  </g>
  <g id="_2326115209616">
   <circle class="fil3" cx="127.46" cy="262.164" r="11.101"/>
   <circle class="fil4" cx="127.46" cy="262.164" r="10.13"/>
  </g>
  <circle class="fil3" cx="224.169" cy="50.438" r="14.838"/>
  <circle class="fil4" cx="224.169" cy="50.438" r="13.54"/>
  <rect class="fil0" x="0.178" y="0.178" width="284.599" height="284.599"/>
  <path class="fil5 str0" d="M0.178 0.178l284.599 0 0 284.599 -284.599 0 0 -284.599zm142.299 2.611c77.148,0 139.689,62.541 139.689,139.688 0,77.148 -62.541,139.689 -139.689,139.689 -77.147,0 -139.688,-62.541 -139.688,-139.689 0,-77.147 62.541,-139.688 139.688,-139.688zm0 32.818c59.023,0 106.871,47.848 106.871,106.87 0,59.023 -47.848,106.871 -106.871,106.871 -59.022,0 -106.87,-47.848 -106.87,-106.871 0,-59.022 47.848,-106.87 106.87,-106.87z"/>
 </g>
</svg>
